<svg width="14.318909" height="14.318909" viewBox="0 0 14.3189 14.3189" fill="none" xmlns="http://www.w3.org/2000/svg" xmlns:xlink="http://www.w3.org/1999/xlink">
	<defs/>
	<path id="Vector (Stroke)" d="M14.08 7.15C14.08 7.47 13.83 7.72 13.52 7.72L0.79 7.72C0.48 7.72 0.23 7.47 0.23 7.15C0.23 6.84 0.48 6.59 0.79 6.59L13.52 6.59C13.83 6.59 14.08 6.84 14.08 7.15Z" fill="#FFFFFF" fill-opacity="1.000000" fill-rule="evenodd"/>
	<path id="Vector (Stroke)" d="M7.82 1.65C8.04 1.43 8.39 1.43 8.61 1.65L13.78 6.82C14 7.04 14 7.39 13.78 7.61L8.61 12.78C8.39 13 8.04 13 7.82 12.78C7.6 12.56 7.6 12.21 7.82 11.99L12.59 7.21L7.82 2.44C7.6 2.22 7.6 1.86 7.82 1.65Z" fill="#FFFFFF" fill-opacity="1.000000" fill-rule="evenodd"/>
</svg>
