<svg width="58" height="58" viewBox="0 0 58 58" fill="none" xmlns="http://www.w3.org/2000/svg">
<path fill-rule="evenodd" clip-rule="evenodd" d="M6.49924 13.7492C7.17906 13.0694 8.10109 12.6875 9.0625 12.6875H22.6562C23.6177 12.6875 24.5397 13.0694 25.2195 13.7492C25.8993 14.4291 26.2812 15.3511 26.2812 16.3125V36.25C26.2812 39.1342 25.1355 41.9003 23.096 43.9398C21.0566 45.9792 18.2905 47.125 15.4062 47.125C14.4052 47.125 13.5938 46.3135 13.5938 45.3125C13.5938 44.3115 14.4052 43.5 15.4062 43.5C17.3291 43.5 19.1731 42.7362 20.5328 41.3765C21.8924 40.0169 22.6562 38.1728 22.6562 36.25V34.4375H9.0625C8.10109 34.4375 7.17906 34.0556 6.49924 33.3758C5.81942 32.6959 5.4375 31.7739 5.4375 30.8125V16.3125C5.4375 15.3511 5.81942 14.4291 6.49924 13.7492ZM22.6562 30.8125V16.3125L9.0625 16.3125L9.0625 30.8125H22.6562Z" fill="white" fill-opacity="0.1"/>
<path fill-rule="evenodd" clip-rule="evenodd" d="M32.7805 13.7492C33.4603 13.0694 34.3823 12.6875 35.3438 12.6875H48.9375C49.8989 12.6875 50.8209 13.0694 51.5008 13.7492C52.1806 14.4291 52.5625 15.3511 52.5625 16.3125V36.25C52.5625 39.1342 51.4167 41.9003 49.3773 43.9398C47.3378 45.9792 44.5717 47.125 41.6875 47.125C40.6865 47.125 39.875 46.3135 39.875 45.3125C39.875 44.3115 40.6865 43.5 41.6875 43.5C43.6103 43.5 45.4544 42.7362 46.814 41.3765C48.1737 40.0169 48.9375 38.1728 48.9375 36.25V34.4375H35.3438C34.3823 34.4375 33.4603 34.0556 32.7805 33.3758C32.1007 32.6959 31.7188 31.7739 31.7188 30.8125V16.3125C31.7188 15.3511 32.1007 14.4291 32.7805 13.7492ZM48.9375 30.8125L48.9375 16.3125H35.3437L35.3438 30.8125H48.9375Z" fill="white" fill-opacity="0.1"/>
</svg>
