<svg width="62" height="20" viewBox="0 0 62 20" fill="none" xmlns="http://www.w3.org/2000/svg">
<path fill-rule="evenodd" clip-rule="evenodd" d="M16.7102 4.53975C16.9299 4.75942 16.9299 5.11558 16.7102 5.33525L9.96025 12.0852C9.74058 12.3049 9.38442 12.3049 9.16475 12.0852L6.75 9.6705L2.08525 14.3352C1.86558 14.5549 1.50942 14.5549 1.28975 14.3352C1.07008 14.1156 1.07008 13.7594 1.28975 13.5398L6.35225 8.47725C6.57192 8.25758 6.92808 8.25758 7.14775 8.47725L9.5625 10.892L15.9148 4.53975C16.1344 4.32008 16.4906 4.32008 16.7102 4.53975Z" fill="#06B470"/>
<path fill-rule="evenodd" clip-rule="evenodd" d="M11.25 4.9375C11.25 4.62684 11.5018 4.375 11.8125 4.375H16.3125C16.6232 4.375 16.875 4.62684 16.875 4.9375V9.4375C16.875 9.74816 16.6232 10 16.3125 10C16.0018 10 15.75 9.74816 15.75 9.4375V5.5H11.8125C11.5018 5.5 11.25 5.24816 11.25 4.9375Z" fill="#06B470"/>
<path d="M27.374 15.168C26.6553 15.168 26.0487 15.0467 25.554 14.804C25.0687 14.552 24.6627 14.2627 24.336 13.936L25.078 12.9C25.3487 13.152 25.652 13.376 25.988 13.572C26.324 13.7587 26.716 13.852 27.164 13.852C27.6587 13.852 28.0693 13.7027 28.396 13.404C28.7227 13.1053 28.886 12.6853 28.886 12.144C28.886 11.612 28.7367 11.2013 28.438 10.912C28.1393 10.6227 27.7427 10.478 27.248 10.478C26.9587 10.478 26.716 10.52 26.52 10.604C26.324 10.6787 26.0907 10.8047 25.82 10.982L25.05 10.492L25.316 6.096H30.076V7.454H26.716L26.534 9.61C26.7207 9.51667 26.9027 9.44667 27.08 9.4C27.2667 9.344 27.4767 9.316 27.71 9.316C28.2233 9.316 28.69 9.414 29.11 9.61C29.53 9.806 29.866 10.1093 30.118 10.52C30.3793 10.9307 30.51 11.458 30.51 12.102C30.51 12.746 30.3607 13.2967 30.062 13.754C29.7727 14.2113 29.39 14.5613 28.914 14.804C28.438 15.0467 27.9247 15.168 27.374 15.168ZM33.1097 15.168C32.8204 15.168 32.5731 15.0653 32.3677 14.86C32.1624 14.6547 32.0597 14.3933 32.0597 14.076C32.0597 13.7587 32.1624 13.4973 32.3677 13.292C32.5731 13.0867 32.8204 12.984 33.1097 12.984C33.4084 12.984 33.6557 13.0867 33.8517 13.292C34.0477 13.4973 34.1457 13.7587 34.1457 14.076C34.1457 14.3933 34.0477 14.6547 33.8517 14.86C33.6557 15.0653 33.4084 15.168 33.1097 15.168ZM37.3852 15C37.4412 13.9453 37.5532 13.0027 37.7212 12.172C37.8892 11.332 38.1459 10.534 38.4912 9.778C38.8365 9.022 39.2939 8.24733 39.8632 7.454H35.6492V6.096H41.6272V7.076C41.1045 7.72 40.6799 8.336 40.3532 8.924C40.0359 9.512 39.7839 10.1093 39.5972 10.716C39.4199 11.3133 39.2892 11.962 39.2052 12.662C39.1212 13.3527 39.0605 14.132 39.0232 15H37.3852ZM45.9629 10.66C45.7109 10.66 45.4449 10.7393 45.1649 10.898C44.8849 11.0473 44.6189 11.3087 44.3669 11.682C44.4509 12.4753 44.6423 13.0493 44.9409 13.404C45.2396 13.7587 45.6036 13.936 46.0329 13.936C46.4063 13.936 46.7189 13.7913 46.9709 13.502C47.2323 13.2033 47.3629 12.7833 47.3629 12.242C47.3629 11.7193 47.2369 11.3273 46.9849 11.066C46.7423 10.7953 46.4016 10.66 45.9629 10.66ZM46.0609 15.168C45.4823 15.168 44.9456 15.014 44.4509 14.706C43.9563 14.398 43.5596 13.922 43.2609 13.278C42.9716 12.634 42.8269 11.8127 42.8269 10.814C42.8269 9.65667 42.9903 8.72333 43.3169 8.014C43.6529 7.29533 44.0869 6.768 44.6189 6.432C45.1509 6.096 45.7203 5.928 46.3269 5.928C46.8683 5.928 47.3349 6.026 47.7269 6.222C48.1189 6.418 48.4456 6.656 48.7069 6.936L47.8389 7.916C47.6803 7.72 47.4703 7.56133 47.2089 7.44C46.9569 7.30933 46.6956 7.244 46.4249 7.244C46.0516 7.244 45.7109 7.34667 45.4029 7.552C45.0949 7.75733 44.8429 8.10267 44.6469 8.588C44.4603 9.064 44.3529 9.71267 44.3249 10.534C44.5863 10.2073 44.8943 9.95067 45.2489 9.764C45.6036 9.57733 45.9396 9.484 46.2569 9.484C47.0316 9.484 47.6569 9.71267 48.1329 10.17C48.6183 10.618 48.8609 11.3087 48.8609 12.242C48.8609 12.83 48.7303 13.3433 48.4689 13.782C48.2169 14.2207 47.8809 14.5613 47.4609 14.804C47.0409 15.0467 46.5743 15.168 46.0609 15.168ZM51.9927 11.472C51.3487 11.472 50.8213 11.22 50.4107 10.716C50.0093 10.2027 49.8087 9.484 49.8087 8.56C49.8087 7.64533 50.0093 6.936 50.4107 6.432C50.8213 5.928 51.3487 5.676 51.9927 5.676C52.6367 5.676 53.1593 5.928 53.5607 6.432C53.9713 6.936 54.1767 7.64533 54.1767 8.56C54.1767 9.484 53.9713 10.2027 53.5607 10.716C53.1593 11.22 52.6367 11.472 51.9927 11.472ZM51.9927 10.534C52.2913 10.534 52.534 10.3753 52.7207 10.058C52.9167 9.74067 53.0147 9.24133 53.0147 8.56C53.0147 7.86933 52.9167 7.37467 52.7207 7.076C52.534 6.768 52.2913 6.614 51.9927 6.614C51.7033 6.614 51.4607 6.768 51.2647 7.076C51.0687 7.37467 50.9707 7.86933 50.9707 8.56C50.9707 9.24133 51.0687 9.74067 51.2647 10.058C51.4607 10.3753 51.7033 10.534 51.9927 10.534ZM52.2867 15.168L57.2847 5.676H58.2647L53.2807 15.168H52.2867ZM58.5587 15.168C57.9147 15.168 57.3873 14.916 56.9767 14.412C56.5753 13.8987 56.3747 13.18 56.3747 12.256C56.3747 11.3413 56.5753 10.632 56.9767 10.128C57.3873 9.624 57.9147 9.372 58.5587 9.372C59.2027 9.372 59.7253 9.624 60.1267 10.128C60.5373 10.632 60.7427 11.3413 60.7427 12.256C60.7427 13.18 60.5373 13.8987 60.1267 14.412C59.7253 14.916 59.2027 15.168 58.5587 15.168ZM58.5587 14.23C58.8573 14.23 59.1 14.0713 59.2867 13.754C59.4827 13.4367 59.5807 12.9373 59.5807 12.256C59.5807 11.5653 59.4827 11.0707 59.2867 10.772C59.1 10.464 58.8573 10.31 58.5587 10.31C58.2693 10.31 58.0267 10.464 57.8307 10.772C57.6347 11.0707 57.5367 11.5653 57.5367 12.256C57.5367 12.9373 57.6347 13.4367 57.8307 13.754C58.0267 14.0713 58.2693 14.23 58.5587 14.23Z" fill="#06B470"/>
</svg>
