<svg width="59" height="58" viewBox="0 0 59 58" fill="none" xmlns="http://www.w3.org/2000/svg">
<path d="M58.5 29C58.5 12.9837 45.5163 0 29.5 0C13.4837 0 0.5 12.9837 0.5 29C0.5 45.0163 13.4837 58 29.5 58C45.5163 58 58.5 45.0163 58.5 29Z" fill="#F8931A"/>
<path fill-rule="evenodd" clip-rule="evenodd" d="M29.5001 16.7802C25.2054 16.7802 21.7238 20.2618 21.7238 24.5565C21.7238 28.8511 25.2054 32.3327 29.5001 32.3327C33.7947 32.3327 37.2763 28.8511 37.2763 24.5565C37.2763 20.2618 33.7947 16.7802 29.5001 16.7802ZM19.5021 24.5565C19.5021 19.0347 23.9783 14.5585 29.5001 14.5585C35.0218 14.5585 39.498 19.0347 39.498 24.5565C39.498 30.0782 35.0218 34.5544 29.5001 34.5544C23.9783 34.5544 19.5021 30.0782 19.5021 24.5565Z" fill="white"/>
<path fill-rule="evenodd" clip-rule="evenodd" d="M29.5 34.5532C26.9648 34.5532 24.4742 35.2206 22.2787 36.4883C20.0831 37.756 18.26 39.5794 16.9926 41.7751C16.6859 42.3065 16.0065 42.4886 15.4752 42.1819C14.9438 41.8752 14.7617 41.1958 15.0684 40.6644C16.5308 38.1309 18.6344 36.027 21.1677 34.5643C23.701 33.1015 26.5747 32.3314 29.5 32.3314C32.4253 32.3314 35.299 33.1015 37.8323 34.5643C40.3656 36.027 42.4692 38.1309 43.9316 40.6644C44.2383 41.1958 44.0562 41.8752 43.5249 42.1819C42.9935 42.4886 42.3141 42.3065 42.0074 41.7751C40.74 39.5794 38.9169 37.756 36.7214 36.4883C34.5258 35.2206 32.0353 34.5532 29.5 34.5532Z" fill="white"/>
</svg>
