<svg width="59" height="58" viewBox="0 0 59 58" fill="none" xmlns="http://www.w3.org/2000/svg">
<path d="M58.5 29C58.5 12.9837 45.5163 0 29.5 0C13.4837 0 0.5 12.9837 0.5 29C0.5 45.0163 13.4837 58 29.5 58C45.5163 58 58.5 45.0163 58.5 29Z" fill="#BD47FC"/>
<path fill-rule="evenodd" clip-rule="evenodd" d="M28.9178 14.7233C29.2749 14.5035 29.7252 14.5035 30.0822 14.7233L44.5238 23.6104C44.947 23.8708 45.1458 24.3808 45.0105 24.859C44.8751 25.3372 44.4386 25.6673 43.9416 25.6673H15.0585C14.5615 25.6673 14.125 25.3372 13.9896 24.859C13.8542 24.3808 14.053 23.8708 14.4763 23.6104L28.9178 14.7233ZM18.9833 23.4456H40.0167L29.5 16.9737L18.9833 23.4456Z" fill="white"/>
<path fill-rule="evenodd" clip-rule="evenodd" d="M19.502 23.4456C20.1155 23.4456 20.6129 23.9429 20.6129 24.5564V35.6653C20.6129 36.2788 20.1155 36.7762 19.502 36.7762C18.8885 36.7762 18.3911 36.2788 18.3911 35.6653V24.5564C18.3911 23.9429 18.8885 23.4456 19.502 23.4456Z" fill="white"/>
<path fill-rule="evenodd" clip-rule="evenodd" d="M26.1674 23.4456C26.7809 23.4456 27.2783 23.9429 27.2783 24.5564V35.6653C27.2783 36.2788 26.7809 36.7762 26.1674 36.7762C25.5539 36.7762 25.0565 36.2788 25.0565 35.6653V24.5564C25.0565 23.9429 25.5539 23.4456 26.1674 23.4456Z" fill="white"/>
<path fill-rule="evenodd" clip-rule="evenodd" d="M32.8327 23.4456C33.4462 23.4456 33.9436 23.9429 33.9436 24.5564V35.6653C33.9436 36.2788 33.4462 36.7762 32.8327 36.7762C32.2192 36.7762 31.7218 36.2788 31.7218 35.6653V24.5564C31.7218 23.9429 32.2192 23.4456 32.8327 23.4456Z" fill="white"/>
<path fill-rule="evenodd" clip-rule="evenodd" d="M39.498 23.4456C40.1115 23.4456 40.6089 23.9429 40.6089 24.5564V35.6653C40.6089 36.2788 40.1115 36.7762 39.498 36.7762C38.8844 36.7762 38.3871 36.2788 38.3871 35.6653V24.5564C38.3871 23.9429 38.8844 23.4456 39.498 23.4456Z" fill="white"/>
<path fill-rule="evenodd" clip-rule="evenodd" d="M15.0585 35.6653C15.0585 35.0518 15.5558 34.5544 16.1694 34.5544H42.8306C43.4442 34.5544 43.9415 35.0518 43.9415 35.6653C43.9415 36.2789 43.4442 36.7762 42.8306 36.7762H16.1694C15.5558 36.7762 15.0585 36.2789 15.0585 35.6653Z" fill="white"/>
<path fill-rule="evenodd" clip-rule="evenodd" d="M12.8367 40.1089C12.8367 39.4954 13.334 38.998 13.9476 38.998H45.0524C45.6659 38.998 46.1633 39.4954 46.1633 40.1089C46.1633 40.7225 45.6659 41.2198 45.0524 41.2198H13.9476C13.334 41.2198 12.8367 40.7225 12.8367 40.1089Z" fill="white"/>
</svg>
