<svg width="59" height="58" viewBox="0 0 59 58" fill="none" xmlns="http://www.w3.org/2000/svg">
<path d="M58.5 29C58.5 12.9837 45.5163 0 29.5 0C13.4837 0 0.5 12.9837 0.5 29C0.5 45.0163 13.4837 58 29.5 58C45.5163 58 58.5 45.0163 58.5 29Z" fill="#F72357"/>
<path fill-rule="evenodd" clip-rule="evenodd" d="M16.1694 16.7803C16.7829 16.7803 17.2802 17.2776 17.2802 17.8912V38.998H42.8306C43.4442 38.998 43.9415 39.4954 43.9415 40.1089C43.9415 40.7224 43.4442 41.2198 42.8306 41.2198H16.1694C15.5558 41.2198 15.0585 40.7224 15.0585 40.1089V17.8912C15.0585 17.2776 15.5558 16.7803 16.1694 16.7803Z" fill="white"/>
<path fill-rule="evenodd" clip-rule="evenodd" d="M41.3944 19.3274C41.8282 19.7612 41.8282 20.4646 41.3944 20.8984L30.2855 32.0073C29.8517 32.4411 29.1483 32.4411 28.7145 32.0073L25.0565 28.3493L16.9549 36.4508C16.521 36.8847 15.8177 36.8847 15.3838 36.4508C14.95 36.017 14.95 35.3136 15.3838 34.8798L24.2709 25.9927C24.7048 25.5589 25.4081 25.5589 25.842 25.9927L29.5 29.6507L39.8234 19.3274C40.2572 18.8936 40.9606 18.8936 41.3944 19.3274Z" fill="white"/>
<path fill-rule="evenodd" clip-rule="evenodd" d="M33.9436 20.1129C33.9436 19.4994 34.441 19.002 35.0545 19.002H40.6089C41.2225 19.002 41.7198 19.4994 41.7198 20.1129V25.6673C41.7198 26.2809 41.2225 26.7782 40.6089 26.7782C39.9954 26.7782 39.498 26.2809 39.498 25.6673V21.2238H35.0545C34.441 21.2238 33.9436 20.7264 33.9436 20.1129Z" fill="white"/>
</svg>
