<svg width="59" height="58" viewBox="0 0 59 58" fill="none" xmlns="http://www.w3.org/2000/svg">
<path d="M58.5 29C58.5 12.9837 45.5163 0 29.5 0C13.4837 0 0.5 12.9837 0.5 29C0.5 45.0163 13.4837 58 29.5 58C45.5163 58 58.5 45.0163 58.5 29Z" fill="#27C28A"/>
<path fill-rule="evenodd" clip-rule="evenodd" d="M19.5021 19.002C19.2075 19.002 18.9249 19.1191 18.7166 19.3274C18.5082 19.5358 18.3912 19.8183 18.3912 20.1129C18.3912 20.4076 18.5082 20.6901 18.7166 20.8984C18.9249 21.1068 19.2075 21.2238 19.5021 21.2238H41.7198C42.3091 21.2238 42.8742 21.4579 43.2909 21.8746C43.7075 22.2912 43.9416 22.8563 43.9416 23.4456V38.998C43.9416 39.5873 43.7075 40.1524 43.2909 40.569C42.8742 40.9857 42.3091 41.2198 41.7198 41.2198H19.5021C18.6182 41.2198 17.7705 40.8687 17.1455 40.2437C16.5206 39.6187 16.1694 38.771 16.1694 37.8871V20.1129C16.1694 19.2291 16.5206 18.3814 17.1455 17.7564C17.7705 17.1314 18.6182 16.7803 19.5021 16.7803H38.3872C39.0007 16.7803 39.4981 17.2776 39.4981 17.8912C39.4981 18.5047 39.0007 19.002 38.3872 19.002H19.5021ZM18.3912 23.255V37.8871C18.3912 38.1818 18.5082 38.4643 18.7166 38.6726C18.9249 38.881 19.2075 38.998 19.5021 38.998H41.7198V23.4456H19.5021C19.12 23.4456 18.7447 23.38 18.3912 23.255Z" fill="white"/>
<path d="M36.7208 32.8881C37.6411 32.8881 38.3871 32.142 38.3871 31.2218C38.3871 30.3015 37.6411 29.5554 36.7208 29.5554C35.8005 29.5554 35.0544 30.3015 35.0544 31.2218C35.0544 32.142 35.8005 32.8881 36.7208 32.8881Z" fill="white"/>
</svg>
