<svg width="78.000000" height="78.000000" viewBox="0 0 78 78" fill="none" xmlns="http://www.w3.org/2000/svg" xmlns:xlink="http://www.w3.org/1999/xlink">
	<defs>
		<clipPath id="clip12_398">
			<rect id="circum:gift" width="44.459999" height="44.459999" transform="translate(16.770020 16.769531)" fill="white" fill-opacity="0"/>
		</clipPath>
	</defs>
	<circle id="Ellipse 4" cx="39.000000" cy="39.000000" r="39.000000" fill="#FFF9F4" fill-opacity="1.000000"/>
	<rect id="circum:gift" width="44.459999" height="44.459999" transform="translate(16.770020 16.769531)" fill="#FFFFFF" fill-opacity="0"/>
	<g clip-path="url(#clip12_398)">
		<path id="Vector" d="M52.77 27.08L48.36 27.08C48.53 26.46 48.53 25.8 48.37 25.17C48.2 24.55 47.87 23.98 47.41 23.52C46.71 22.84 45.77 22.45 44.79 22.45C43.81 22.45 42.87 22.84 42.17 23.52L39 26.71L35.83 23.52C35.48 23.18 35.07 22.9 34.62 22.72C34.17 22.53 33.69 22.44 33.21 22.44C32.72 22.44 32.24 22.53 31.79 22.72C31.34 22.9 30.93 23.18 30.58 23.52C30.13 23.98 29.8 24.55 29.63 25.17C29.47 25.8 29.47 26.46 29.64 27.08L25.22 27.08C24.48 27.08 23.78 27.37 23.26 27.89C22.74 28.41 22.44 29.12 22.44 29.86L22.44 31.71C22.44 32.26 22.61 32.8 22.92 33.25C23.23 33.71 23.66 34.06 24.17 34.27L24.17 50.92C24.18 52.15 24.67 53.32 25.54 54.19C26.4 55.06 27.58 55.55 28.81 55.55L49.18 55.55C50.41 55.55 51.59 55.06 52.46 54.2C53.33 53.33 53.81 52.15 53.81 50.92L53.81 34.29C54.33 34.08 54.77 33.72 55.08 33.26C55.39 32.8 55.55 32.26 55.56 31.71L55.56 29.86C55.56 29.49 55.48 29.13 55.34 28.79C55.2 28.45 55 28.15 54.74 27.89C54.48 27.63 54.17 27.43 53.83 27.29C53.5 27.15 53.13 27.08 52.77 27.08ZM31.89 24.84C32.24 24.49 32.71 24.3 33.2 24.3C33.69 24.3 34.16 24.49 34.5 24.84L36.74 27.08L31.61 27.08C31.4 26.73 31.31 26.32 31.36 25.91C31.41 25.5 31.6 25.12 31.89 24.84ZM37.14 53.7L28.81 53.7C28.07 53.7 27.36 53.41 26.84 52.89C26.32 52.36 26.03 51.66 26.03 50.92L26.03 34.49L37.14 34.49L37.14 53.7ZM37.14 32.64L25.22 32.64C24.98 32.64 24.74 32.54 24.57 32.37C24.39 32.19 24.3 31.96 24.3 31.71L24.3 29.86C24.3 29.61 24.39 29.38 24.57 29.2C24.74 29.03 24.98 28.93 25.22 28.93L37.14 28.93L37.14 32.64ZM43.5 24.84C43.82 24.52 44.24 24.33 44.69 24.3C45.13 24.27 45.58 24.41 45.93 24.68C46.29 24.96 46.53 25.35 46.62 25.79C46.71 26.23 46.63 26.69 46.4 27.08L41.26 27.08L43.5 24.84ZM51.96 50.92C51.96 51.66 51.67 52.36 51.15 52.89C50.63 53.41 49.92 53.7 49.18 53.7L40.85 53.7L40.85 34.49L51.96 34.49L51.96 50.92ZM53.7 31.71C53.7 31.96 53.61 32.19 53.43 32.37C53.26 32.54 53.02 32.64 52.78 32.64L40.85 32.64L40.85 28.93L52.78 28.93C53.02 28.93 53.26 29.03 53.43 29.2C53.61 29.38 53.7 29.61 53.7 29.86L53.7 31.71Z" fill="#704174" fill-opacity="1.000000" fill-rule="evenodd"/>
	</g>
</svg>
